<svg xmlns="http://www.w3.org/2000/svg" viewBox="0 0 400 400"><path fill="#0F1E24" d="M105.146 332.944c-8.365 6.863-16.533 13.986-25.18 20.471-3.989 2.991-7.199.984-6.926-4.001.431-7.887 1.376-15.746 2.096-23.617.614-6.713 1.218-13.427 2.136-20.913.579-8.418 1.075-16.063 1.083-23.708.047-45.097-.015-90.194-.064-135.29-.002-2.152-.232-4.303-.25-6.832.144-8.496-.172-16.637.356-24.723.305-4.672 1.104-9.705 3.22-13.775 3.469-6.674 9.993-9.451 17.443-9.57 10.61-.17 21.222-.165 32.308-.144 23.905.112 47.336.161 70.768.146 13.621-.009 27.242-.12 41.326-.111 16.776.069 33.09-.02 49.402.086 11.851.078 19.378 6.913 20.632 18.668.405 3.792.314 7.643.341 11.468.114 16.302.187 32.604.215 49.106-.061.2.015.611-.078 1.083-.118 7.628-.167 14.783-.167 21.937-.003 27.291.108 54.581-.023 81.871-.075 15.445-8.064 23.366-23.406 23.668-4.49.088-8.985-.064-13.477-.046-17.297.066-34.595.157-52.355.152-23.602-.235-46.744-.219-69.878-.631-7.1-.127 15.113 5.9-17.111 7.815-11.011 9.043-21.711 17.966-32.411 26.89m57.625-93.549c13.029-1.591 23.262-8.196 32.225-17.705l-14.23-15.447c-17.926 13.576-34.911 14.119-46.659 1.809-11.444-11.99-12.103-33.236-1.424-45.886 11.364-13.461 27.654-13.414 48.087.36l13.716-16.077c-13.808-17.063-38.627-23.429-59.158-15.093-20.279 8.234-29.919 24.496-32.809 45.343-5.008 36.123 24.333 67.107 60.252 62.696m82.248.336c18.476 1.932 33.443-4.923 46.144-18.387l-13.745-14.918c-18.195 13.39-35.467 13.849-46.826 1.608-11.196-12.065-11.828-32.882-1.383-45.542 11.211-13.588 26.692-13.756 47.426-.351l13.736-15.712c-.719-.868-1.212-1.529-1.771-2.129-23.748-25.479-64.256-20.751-81.624 9.523-20.241 35.283-1.334 78.908 38.043 85.908"/><path fill="#9C5BCD" d="M225.009 298.957c17.297-.082 34.595-.173 51.892-.239 4.492-.018 8.987.134 13.477.046 15.342-.302 23.331-8.223 23.406-23.668.131-27.29.02-54.58.023-81.871 0-7.154-.303-16.063.114-23.527 12.714 12.439 25.366 26.963 37.75 39.652 1.162 1.191 6.496 7.193 8.143 8.854 8.95 9.023 16.112 19.236 20.819 31.038 6.802 17.051 5.082 33.564-4.514 49.017-8.719 14.038-21.203 24.726-33.392 35.607-6.631 5.921-13.089 12.049-19.914 17.737-12.889 10.742-24.405 23.428-39.776 30.782-15.171 7.258-30.753 6.604-44.696-2.814-16.064-10.85-52.175-39.845-51.883-40.196 2.531-2.612 27.933-29.292 38.551-40.418"/><path fill="#F7558A" d="M130.893 90.752c-10.611.069-21.223.064-31.833.234-7.45.119-13.974 2.896-17.443 9.57-2.116 4.07-2.915 9.103-3.22 13.775-.528 8.086.357 15.943-.112 24.601-21.561 16.402-44.532 31.101-60.343 53.01 1.723-7.086 3.122-14.27 5.225-21.242 8.801-29.167 17.707-58.303 26.791-87.382 4.978-15.937 13.598-29.566 27.539-39.192 8.806-6.081 18.932-10.145 29.402-10.717 15.497-.845 30.239 3.818 44.362 10.234 10.778 4.896 25.511 10.811 36.341 15.592.728.321-18.5 9.798-26.589 14.32-10.09 5.641-20.084 11.456-30.12 17.197"/><path fill="#FDAE42" d="M314.112 170.005c-.088-16.302-.161-32.604-.275-48.906-.027-3.825.064-7.676-.341-11.468-1.254-11.755-8.781-18.59-20.632-18.668-16.312-.106-33.053.267-50.02-.074-12.54-6.942-24.046-13.74-35.867-20.45-6.448-3.66-13.934-7.569-20.278-11.411 16.131-9.617 34.183-17.882 52.166-23.35 16.559-5.036 32.748-3.575 48.825 3.159 21.333 8.935 33.405 25.407 40.299 46.591.299.917.655 1.815 1.068 3.495 3.833 15.607 6.18 30.595 2.852 45.787-2.895 13.212-7.531 25.718-17.797 35.295"/><path fill="#2FA9B0" d="M17.627 192.154c16.126-22.121 39.239-38.242 60.693-54.266.449 1.99.082 98.191.035 143.288-.008 7.645-.504 15.29-1.017 23.233-9.402-8.565-18.766-17.229-27.671-26.34-11.451-11.714-21.641-24.522-29.194-39.112-7.732-14.937-8.872-30.602-2.846-46.803"/><path fill="#FB8439" d="M313.818 170.205c10.326-9.777 15.196-22.283 18.091-35.495 3.328-15.192.046-31.583-3.739-46.809 3.241 1.958 7.583 5.552 10.706 8.092 12.955 10.537 25.711 21.24 32.737 37.069 5.199 11.713 6.418 23.808 2.304 35.841-4.398 12.861-21.084 41.638-22.246 40.447-12.384-12.689-37.914-38.945-37.853-39.145"/><path fill="#2FA9B0" d="M137.633 306.022c5.546 3.94 49.392 33.114 49.359 33.532-7.466 7.402-15.851 16.008-25.372 20.581-14.05 6.748-28.655 3.792-39.176-6.467-6.258-6.101-11.815-13.694-17.639-20.695 10.392-9.061 21.633-18.201 32.828-26.951"/><path fill="#F98338" d="M187.096 59.041c6.604 3.747 13.433 7.738 19.881 11.398 11.821 6.71 24.607 13.508 36.684 20.376-13.43.337-27.904.164-41.525.173-23.432.015-49.083-.034-72.988-.146 9.561-5.831 21.775-11.646 31.865-17.287 8.089-4.522 25.374-14.145 26.083-14.514"/><path fill="#F6F6F4" d="M162.333 239.492c-35.48 4.314-64.822-26.67-59.814-62.793 2.89-20.847 12.53-37.11 32.81-45.343 20.53-8.336 45.349-1.97 59.157 15.093l-13.716 16.077c-20.433-13.774-36.723-13.82-48.087-.36-10.68 12.65-10.02 33.896 1.424 45.886 11.748 12.31 28.733 11.767 46.659-1.809l14.23 15.447c-8.963 9.509-19.196 16.114-32.663 17.802M244.58 239.652c-38.938-6.92-57.845-50.546-37.604-85.829 17.368-30.274 57.876-35.002 81.624-9.523.56.6 1.052 1.26 1.771 2.129l-13.736 15.712c-20.734-13.405-36.215-13.237-47.426.35-10.445 12.66-9.813 33.478 1.383 45.543 11.359 12.24 28.63 11.782 46.826-1.608l13.745 14.918c-12.7 13.464-27.668 20.319-46.583 18.308"/><path fill="#2F81E2" d="M186.674 339.808c-11.105-7.207-44.253-29.521-49.488-33.58 4.013-5.928 10.382-8.116 17.482-7.989 23.134.412 47.142.288 70.744.523-10.155 11.213-36.207 38.434-38.738 41.046"/></svg>